<?xml version="1.0" encoding="utf-8"?>
<!-- Generator: Adobe Illustrator 24.0.1, SVG Export Plug-In . SVG Version: 6.00 Build 0)  -->
<svg version="1.1" id="Layer_1" xmlns="http://www.w3.org/2000/svg" xmlns:xlink="http://www.w3.org/1999/xlink" x="0px" y="0px"
	 viewBox="0 0 800 800" style="enable-background:new 0 0 800 800;" xml:space="preserve">
<style type="text/css">
	.st0{fill:#FFFFFF;}
</style>
<path class="st0" d="M303.5,526.6c0,53.2,43.3,96.5,96.5,96.5s96.5-43.3,96.5-96.5c0-13-7.3-47.5-55.9-132.1
	c-10.7-18.6-21.4-36.1-30.7-50.9h-19.7c-9.3,14.8-20,32.3-30.7,50.9C310.8,479.1,303.5,513.6,303.5,526.6z M421.4,94.4v84.5
	c23.9,0.6,43.1,20.2,43.1,44.2v76.3c0,12-4.8,22.9-12.6,30.9c8,12.9,16.7,27.4,25.5,42.6c41.6,72.2,61.8,122.5,61.8,153.7
	c0,76.8-62.5,139.2-139.2,139.2s-139.2-62.5-139.2-139.2c0-31.2,20.2-81.5,61.8-153.7c8.8-15.3,17.5-29.8,25.5-42.6
	c-7.8-8-12.6-18.9-12.6-30.9V223c0-24.1,19.2-43.6,43.1-44.2V94.4C219.6,105.3,94,237.8,94,399.6c0,169,137,306,306,306
	s306-137,306-306C706,237.8,580.4,105.3,421.4,94.4z"/>
</svg>
